<svg xmlns="http://www.w3.org/2000/svg" xmlns:xlink="http://www.w3.org/1999/xlink" width="1103.49" height="555.498" viewBox="0 0 1103.49 555.498"><defs><style>.a{fill:#fff;}.b,.e{fill:#006d95;}.b{opacity:0.6;}.c{fill:#504f60;}.d{fill:url(#a);}.f{fill:#6c63ff;}.f,.k,.v{opacity:0.1;}.g{fill:#1b2326;}.h{fill:#21292b;}.i{fill:#212b2e;}.j,.o,.p{fill:#d42543;}.j{opacity:0.67;}.k{fill:#4d8af0;}.l{fill:#2f2e41;}.m{fill:#ffda00;}.n,.p{opacity:0.7;}.q{fill:#ec8c9c;}.r{fill:#535461;}.s{fill:#052d3b;}.t{fill:#565388;}.u{fill:#dfe5ee;}.w{fill:#004c68;}.x{fill:#603456;}</style><linearGradient id="a" x1="0.502" y1="1" x2="0.502" gradientUnits="objectBoundingBox"><stop offset="0" stop-color="gray" stop-opacity="0.251"/><stop offset="0.535" stop-color="gray" stop-opacity="0.122"/><stop offset="1" stop-color="gray" stop-opacity="0.102"/></linearGradient></defs><path class="a" d="M266.1,444.083Z" transform="translate(577.459 -148.919)"/><path class="b" d="M233.661,386.878s25.736,4.784,44.29-20.333c0,0-15.561-15.25-26.335-11.961s-17.955,22.726-17.955,22.726Z" transform="translate(574.286 -84.093)"/><path class="c" d="M211.655,374.961l26.335,54.123,6.284-3.289-27.232-50.834Z" transform="translate(607.963 -92.509)"/><path class="d" d="M303.066,379.476a.7.7,0,0,0,.1-.41A2.562,2.562,0,0,0,303.066,379.476Z" transform="translate(525.651 -101.58)"/><path class="d" d="M303.066,378.787a.7.7,0,0,0,.1-.41,2.557,2.557,0,0,0-.1.41Z" transform="translate(525.651 -101.097)"/><path class="e" d="M242.747,212.718a58.393,58.393,0,0,0-14.131,1.881,61.178,61.178,0,0,0-17.932,7.984,56.467,56.467,0,0,0-12.228,10.469c-18.988-33.347-14.741-93.5-14.385-98.1v0c.006-.072.009-.132.012-.173.006-.069.009-.1.009-.1C196.661,134.673,242.747,212.718,242.747,212.718Z" transform="translate(609.49 69.734)"/><path class="f" d="M700.435,345.973h39.9c14.7,0-41.286,36.624-53.635,45.431-14.172,10.089-33.38,13.856-51.54,18.085a615.976,615.976,0,0,0-75.05,22.593c-4.433,1.657-8.989,3.444-12.078,6.5-3.438,3.4-4.6,7.891-6.667,11.955-8.1,15.853-29.208,24.119-47.858,32.359s-38.4,20.4-39.27,37.5c-.367,6.8,3.395,14.414,11.345,16.768,9.6,2.869,23.266-2.224,29.174,4.543,2.356,2.712,2.2,6.331,1.588,9.592-3.927,20.814-21.817,37.827-38.258,54.185-7.9,7.848-15.228,20.387-5.559,26.84,7.723,5.153,21.66,1.945,27.341,8.6,1.955,2.3,2.3,5.232,2.321,8.014.122,19.977-14.879,39.536-37.115,48.36-14.382,5.72-30.762,7.054-46.758,7.961-20.229,1.16-40.5,1.8-60.782,1.744a237.658,237.658,0,0,1-31.538-1.674c-10.4-1.4-20.508-3.933-30.544-6.47l-166.943-42c-5.306-1.334-10.786-2.747-14.94-5.729-4.634-3.34-7.042-8.24-8.509-13.08-7.854-26.264,7.261-54.063,1.161-80.659-6.659-29.037-37.185-51.037-47.6-79.351-7.051-19.184-4.363-39.667-1.562-59.531l10.28-74.381c190.872-6.645,382.852-9.095,573.61-.541C667.841,345.642,653.869,350.917,700.435,345.973Z" transform="translate(-34.128 -151.499)"/><path class="g" d="M610.268,568.3l-49.749,13.367s-76.561,1.53-103.1,24.48-103.613,20.4-105.655,20.4-30.624-24.99-82.686,1.02-114.331,9.69-114.331,9.69-64.822,27.03-83.2,17.85-7.146-21.42-7.146-21.42,37.77-29.07,8.677-61.2,5.1-32.13,5.1-32.13h98.4a48.914,48.914,0,0,0,23.076-5.544c7.687-4.106,16.731-2.795,22.785-1.066a36.463,36.463,0,0,0,16.1.867c49.392-8.369,80.91-5.972,94.007-4.146a73.041,73.041,0,0,0,16.45.4c16.69-1.454,51.327-4.539,70.135-6.773,5.176-.612,9.152-1.158,11.229-1.591,5.819-1.214,33.289,4.136,61.075,11.292,30.706,7.9,61.805,18.008,64.485,23.9,3.7,8.119,36.265,8.492,53.981,8.078a1.285,1.285,0,0,1,.362,2.525Z" transform="translate(492.272 -222.241)"/><path class="h" d="M693.035,669.763l-12.25,2.55s-48.489-26.01-55.124-17.34" transform="translate(159.969 -331.709)"/><path class="i" d="M626.93,533.716s-78.6-15.81-111.269,3.06" transform="translate(301.965 -226.523)"/><path class="j" d="M591.473,589.029s-19.652-8.027-18.791-3.44,10.9,9.173,10.9,9.173-19.8-1.72-18.935,5.16c0,0,22.664-.573,21.8,4.587s0,12.04,3.73,10.606,6.025-18.06,16.066-10.033,8.607-8.313-3.73-9.746c0,0,6.6-4.873,6.025-7.167S591.473,589.029,591.473,589.029Z" transform="translate(298.066 -264.749)"/><path class="i" d="M887.286,617.639s-28.072-8.67-30.625-7.14" transform="translate(135.014 -267.096)"/><path class="h" d="M489.661,634.277s37.77-10.71,52.062-2.55" transform="translate(314.694 -276.084)"/><path class="h" d="M612.161,530.354s10.208-30.09,30.625-23.97,35.729,21.93,35.729,21.93l-66.353,5.1Z" transform="translate(254.719 -215.766)"/><path class="h" d="M727.661,622.716s22.968-15.81,45.426-10.2,5.615,24.99,5.615,24.99Z" transform="translate(198.171 -270.199)"/><path class="i" d="M709.661,609.677s22.458-9.69,37.77.51,45.937,15.3,45.937,15.3" transform="translate(206.984 -264.743)"/><path class="k" d="M290.906,754.966c4.494-17.506,18.627-26.624,31.556-25.893s24.973,9.158,36.562,17.459,23.591,16.81,36.515,17.725c28.72,2.032,52.89-33.245,81.511-37.249,34.024-4.759,64.218,35.215,98.381,36.862,6.008.29,12.136-.669,17.669-4.061,4.816-2.952,9.012-7.63,13.561-11.362,22.955-18.835,51.665-11.724,77.061-1.28s51.759,23.823,77.574,15.8" transform="translate(-278.607 -407.915)"/><path class="k" d="M290.906,751.8c5.764-15.55,23.889-23.648,40.472-23s32.028,8.134,46.892,15.508,30.256,14.932,46.831,15.744c36.834,1.8,67.833-29.53,104.539-33.086,43.636-4.227,82.36,31.28,126.176,32.742,7.706.257,15.564-.594,22.66-3.607,6.176-2.622,11.559-6.778,17.392-10.093,29.44-16.73,66.262-10.413,98.832-1.137s66.382,21.161,99.49,14.034" transform="translate(-289.951 -456.322)"/><path class="f" d="M290.906,754.966c5.97-17.506,24.743-26.624,41.919-25.893S366,738.23,381.393,746.531s31.337,16.81,48.505,17.725c38.151,2.032,70.258-33.245,108.276-37.249,45.2-4.759,85.3,35.215,130.687,36.862,7.981.29,16.121-.669,23.47-4.061,6.4-2.952,11.972-7.63,18.014-11.362,30.492-18.835,68.631-11.724,102.366-1.28s68.755,23.823,103.047,15.8" transform="translate(-284.715 -509.065)"/><path class="l" d="M544.844,171.506l-3.881-.686a25.037,25.037,0,0,1,.469-2.852c.659-8.314-5.111-17.062-13.222-19.269l1.038-3.809c7.391,2.01,13.09,8.19,15.253,15.387a27.31,27.31,0,0,1,17.816-12.907l.781,3.87a23.778,23.778,0,0,0-17.75,17.357A19.951,19.951,0,0,1,544.844,171.506Z" transform="translate(-133.413 -121.554)"/><circle class="m" cx="58.5" cy="58.5" r="58.5" transform="translate(736 45.212)"/><g class="n" transform="translate(-418 -250.443)"><path class="o" d="M660.517,266.117s-1.44-4.892.271-8.493a7.694,7.694,0,0,0,.628-4.848,12.485,12.485,0,0,0-.689-2.276" transform="translate(305.063 107.285)"/><path class="o" d="M661.742,247.716a8.714,8.714,0,0,1-1.082,2.337,8.717,8.717,0,0,1-1.091-2.337,1.091,1.091,0,1,1,2.173,0Z" transform="translate(305.112 107.794)"/><path class="o" d="M663.8,251.443a8.727,8.727,0,0,1-2.182,1.369,8.712,8.712,0,0,1,.358-2.555,1.091,1.091,0,1,1,1.824,1.186Z" transform="translate(304.85 107.388)"/><path class="o" d="M663.624,257.912a8.54,8.54,0,0,1-2.574.078,8.721,8.721,0,0,1,1.6-2.023,1.09,1.09,0,0,1,.977,1.945Z" transform="translate(304.923 106.597)"/><path class="o" d="M662.491,262.837a8.61,8.61,0,0,1-2.531.514,8.653,8.653,0,0,1,1.23-2.267,1.09,1.09,0,0,1,1.3,1.744Z" transform="translate(305.062 105.953)"/><path class="o" d="M658.946,253.121a8.732,8.732,0,0,0,2.443.872,8.715,8.715,0,0,0-.925-2.407,1.082,1.082,0,1,0-1.518,1.535Z" transform="translate(305.238 107.193)"/><path class="o" d="M657.618,258.859a8.662,8.662,0,0,0,2.618.087,8.53,8.53,0,0,0-1.606-2.023,1.084,1.084,0,1,0-.977,1.936Z" transform="translate(305.431 106.478)"/><path class="o" d="M657.136,264.653a8.559,8.559,0,0,0,2.531.514,8.327,8.327,0,0,0-1.239-2.258,1.085,1.085,0,1,0-1.292,1.744Z" transform="translate(305.477 105.724)"/></g><g class="n" transform="translate(-827 -241.443)"><path class="o" d="M660.517,266.117s-1.44-4.892.271-8.493a7.694,7.694,0,0,0,.628-4.848,12.485,12.485,0,0,0-.689-2.276" transform="translate(305.063 107.285)"/><path class="o" d="M661.742,247.716a8.714,8.714,0,0,1-1.082,2.337,8.717,8.717,0,0,1-1.091-2.337,1.091,1.091,0,1,1,2.173,0Z" transform="translate(305.112 107.794)"/><path class="o" d="M663.8,251.443a8.727,8.727,0,0,1-2.182,1.369,8.712,8.712,0,0,1,.358-2.555,1.091,1.091,0,1,1,1.824,1.186Z" transform="translate(304.85 107.388)"/><path class="o" d="M663.624,257.912a8.54,8.54,0,0,1-2.574.078,8.721,8.721,0,0,1,1.6-2.023,1.09,1.09,0,0,1,.977,1.945Z" transform="translate(304.923 106.597)"/><path class="o" d="M662.491,262.837a8.61,8.61,0,0,1-2.531.514,8.653,8.653,0,0,1,1.23-2.267,1.09,1.09,0,0,1,1.3,1.744Z" transform="translate(305.062 105.953)"/><path class="o" d="M658.946,253.121a8.732,8.732,0,0,0,2.443.872,8.715,8.715,0,0,0-.925-2.407,1.082,1.082,0,1,0-1.518,1.535Z" transform="translate(305.238 107.193)"/><path class="o" d="M657.618,258.859a8.662,8.662,0,0,0,2.618.087,8.53,8.53,0,0,0-1.606-2.023,1.084,1.084,0,1,0-.977,1.936Z" transform="translate(305.431 106.478)"/><path class="o" d="M657.136,264.653a8.559,8.559,0,0,0,2.531.514,8.327,8.327,0,0,0-1.239-2.258,1.085,1.085,0,1,0-1.292,1.744Z" transform="translate(305.477 105.724)"/></g><g class="n" transform="translate(-619 -269.443)"><path class="o" d="M660.517,266.117s-1.44-4.892.271-8.493a7.694,7.694,0,0,0,.628-4.848,12.485,12.485,0,0,0-.689-2.276" transform="translate(305.063 107.285)"/><path class="o" d="M661.742,247.716a8.714,8.714,0,0,1-1.082,2.337,8.717,8.717,0,0,1-1.091-2.337,1.091,1.091,0,1,1,2.173,0Z" transform="translate(305.112 107.794)"/><path class="o" d="M663.8,251.443a8.727,8.727,0,0,1-2.182,1.369,8.712,8.712,0,0,1,.358-2.555,1.091,1.091,0,1,1,1.824,1.186Z" transform="translate(304.85 107.388)"/><path class="o" d="M663.624,257.912a8.54,8.54,0,0,1-2.574.078,8.721,8.721,0,0,1,1.6-2.023,1.09,1.09,0,0,1,.977,1.945Z" transform="translate(304.923 106.597)"/><path class="o" d="M662.491,262.837a8.61,8.61,0,0,1-2.531.514,8.653,8.653,0,0,1,1.23-2.267,1.09,1.09,0,0,1,1.3,1.744Z" transform="translate(305.062 105.953)"/><path class="o" d="M658.946,253.121a8.732,8.732,0,0,0,2.443.872,8.715,8.715,0,0,0-.925-2.407,1.082,1.082,0,1,0-1.518,1.535Z" transform="translate(305.238 107.193)"/><path class="o" d="M657.618,258.859a8.662,8.662,0,0,0,2.618.087,8.53,8.53,0,0,0-1.606-2.023,1.084,1.084,0,1,0-.977,1.936Z" transform="translate(305.431 106.478)"/><path class="o" d="M657.136,264.653a8.559,8.559,0,0,0,2.531.514,8.327,8.327,0,0,0-1.239-2.258,1.085,1.085,0,1,0-1.292,1.744Z" transform="translate(305.477 105.724)"/></g><path class="p" d="M177.335,171.351v43.024c0,7.089-8.77,10.577-13.535,5.328l-.166-.183c-1.545-1.744-3.657-3.828-5.777-2.912a10.953,10.953,0,0,0-1.745,1.23,24.543,24.543,0,0,1,1.1,2.886c1.833,6.1.4,12.618-1.553,18.652s-4.468,12-4.8,18.312a55.766,55.766,0,0,0,.532,9.1c.663,5.746,1.353,11.6,3.753,16.856,1.318,2.878,3.177,5.781,2.784,8.92a90.931,90.931,0,0,1-30.613-3.88c6.851-6.906,6.842-17.85,6.388-27.555l-1.108-23.456a16.314,16.314,0,0,0-1.283-6.706,10.925,10.925,0,0,0-7.435-5.232,32.559,32.559,0,0,0-9.346-.305,4.993,4.993,0,0,1,.646-3.54,44.709,44.709,0,0,0,15.4,3.6,1.963,1.963,0,0,0,2.513-2.285,40.864,40.864,0,0,0-1.056-11.563h0c-2.819.671-5.315,2.9-8.212,2.677-3.8-.288-6.056-4.543-9.6-5.851-2.749-1.012-5.768-.122-8.639.4s-6.292.488-8.186-1.744c-2.382-2.817-.873-7.281-2.435-10.63-2.2-4.778-8.849-4.866-14.076-4.212a16.58,16.58,0,0,1,8.823-6.636c-1.894-3.383-8.648-3.157-8.29-7.229a3.879,3.879,0,0,1,1.309-2.494q2.906-2.668,5.829-5.319l-8.648-3.27c-2.443-.916-5.236-2.206-4.913-5.415a5.309,5.309,0,0,1,1.588-3.157l.55-.558a12.17,12.17,0,0,1,8.6-3.488l50.615-14.6A32.109,32.109,0,0,1,177.37,171.09Z" transform="translate(-35.455 -138.868)"/><path class="p" d="M649.275,196.182v23.84a4.364,4.364,0,0,1-7.5,2.956l-.087-.1c-.873-.959-2.025-2.119-3.2-1.613a5.7,5.7,0,0,0-.969.68,14.794,14.794,0,0,1,.611,1.6c1.012,3.357.218,6.976-.873,10.333s-2.47,6.645-2.618,10.159a30.5,30.5,0,0,0,.3,5.04,30.826,30.826,0,0,0,2.077,9.339c.733,1.6,1.745,3.209,1.545,4.944a50.076,50.076,0,0,1-16.965-2.154c3.8-3.819,3.8-9.888,3.543-15.269q-.314-6.5-.611-13a8.924,8.924,0,0,0-.716-3.715,6.056,6.056,0,0,0-4.119-2.9,18.036,18.036,0,0,0-5.175-.166,2.753,2.753,0,0,1,.358-1.962,24.652,24.652,0,0,0,8.535,2,1.09,1.09,0,0,0,1.388-1.273,22.5,22.5,0,0,0-.576-6.4h0c-1.562.366-2.95,1.6-4.555,1.482-2.1-.166-3.36-2.52-5.341-3.244-1.527-.558-3.194-.07-4.791.218s-3.491.27-4.529-.959c-1.326-1.561-.5-4.037-1.353-5.895-1.222-2.616-4.9-2.694-7.8-2.337a9.189,9.189,0,0,1,4.887-3.671c-1.047-1.883-4.791-1.744-4.6-4a2.171,2.171,0,0,1,.733-1.386l3.229-2.947-4.791-1.814c-1.353-.506-2.915-1.221-2.723-3a2.93,2.93,0,0,1,.873-1.744l.314-.314a6.705,6.705,0,0,1,4.765-1.945l28.021-8.057a17.791,17.791,0,0,1,22.69,17.161Z" transform="translate(-97.357 -133.904)"/><path class="p" d="M1004.225,180.962v16.716a3.037,3.037,0,0,0,5.236,2.067l.061-.07c.6-.671,1.422-1.491,2.252-1.134a4.562,4.562,0,0,1,.681.48,8.762,8.762,0,0,0-.428,1.125c-.716,2.363-.157,4.909.611,7.264s1.745,4.665,1.868,7.133a21.929,21.929,0,0,1-.21,3.54,21.646,21.646,0,0,1-1.466,6.557c-.506,1.125-1.23,2.258-1.082,3.488a35.353,35.353,0,0,0,11.921-1.517c-2.67-2.686-2.67-6.976-2.487-10.725.14-3.043.288-6.1.428-9.13a6.283,6.283,0,0,1,.5-2.616,4.25,4.25,0,0,1,2.9-2.04,12.7,12.7,0,0,1,3.639-.122,2,2,0,0,0-.253-1.378,17.351,17.351,0,0,1-6,1.4.987.987,0,0,1-.742-.166.959.959,0,0,1-.236-.724,15.571,15.571,0,0,1,.41-4.5h0c1.091.262,2.068,1.125,3.194,1.038,1.484-.113,2.356-1.744,3.753-2.276a6.535,6.535,0,0,1,3.369.157c1.126.2,2.443.192,3.177-.68.934-1.09.349-2.834.951-4.133.873-1.857,3.491-1.892,5.48-1.639a6.4,6.4,0,0,0-3.438-2.616c.742-1.325,3.369-1.23,3.229-2.817a1.464,1.464,0,0,0-.506-.968l-2.269-2.075,3.369-1.273c.951-.358,2.042-.872,1.911-2.11a2.083,2.083,0,0,0-.62-1.221l-.218-.218a4.706,4.706,0,0,0-3.351-1.369l-19.7-5.685a12.5,12.5,0,0,0-15.97,12.051Z" transform="translate(-152.767 -131.628)"/><path class="g" d="M41.41,333.831a260.621,260.621,0,0,1,57.07-43.166c21.318-11.751,47.044-21.146,73.622-20.105,68.147,2.668,195.1-25.183,195.1-25.183s101.745-19.567,126.014-9.313,61.611,26.421,87.756,26.421,49.472,73.491,49.472,73.491S41.41,328.442,41.41,333.831Z" transform="translate(-29.819 -139.801)"/><path class="f" d="M817.711,721.569a5.752,5.752,0,0,1-.96,7.072,234.75,234.75,0,0,0,37.525,6.924c3.246.331,7.034.384,9.154-2.093,1.422-1.674,1.745-4.159,3.325-5.659A7.961,7.961,0,0,1,870.2,726.2c3.91-1.09,8.046-1.639,11.58-3.627s6.388-6.025,5.376-9.949c-1.169-4.517-6.432-6.409-10.961-7.586l-14.111-3.68a146.652,146.652,0,0,0-25.709-4.543c-4.835-.384-12.706-2.45-17.305-.331-5.69,2.616-3.386,7.726-5.288,12.766-.934,2.468-5.332,6.252-3.386,9.3C811.507,720.287,815.914,718.709,817.711,721.569Z" transform="translate(-132.03 -198.129)"/><path class="f" d="M635.4,690.49s-52.456-2.136-36.652,10.464,30.186,14.274,36.652,22.087,7.933,6.627,30.989,8.947,45.859,2.2,46.706-6.976,3.211-23.378,0-27.529S635.4,690.49,635.4,690.49Z" transform="translate(-104.767 -197.465)"/><path class="q" d="M700.2,721.211a2.015,2.015,0,0,1-2.007,2.18c-8.421,0-38.843-.654-49.306-9.513-12.217-10.324,11.345-6.662,11.345-6.662,15.333-3.7,17.453-8.964,17.7-11.057a.216.216,0,0,1,0-.07,2.782,2.782,0,0,0,0-.872l.611-.357,2.313-1.369,17.358,5.232.358,4.107Z" transform="translate(-111.081 -197.866)"/><path class="r" d="M862.471,712.645a24.306,24.306,0,0,1-4.023-.331,97.408,97.408,0,0,1-13.963-3.54c-5.5-1.814-7.522-3.139-7.2-4.752.305-1.482.873-4.273,43.459-2.991.349-.523.681-1.055.977-1.587,3.665-6.566,4.931-16.646-2.557-25.218-15.438-17.693-31.783-13.08-31.949-13.019l-.515-1.744c.175-.052,17.576-5.049,33.816,13.551a23.268,23.268,0,0,1,2.766,27.3c-.14.262-.3.523-.445.776,9.992.323,22.192.872,37.089,1.665,39.907,2.171,80.147,5.354,80.548,5.389s27.481,2.564,39.48-14.824c10.263-14.894,6.807-39.667-10.263-73.631l1.606-.811c17.392,34.609,20.8,59.993,10.132,75.462-12.61,18.312-39.96,15.7-41.12,15.6-.375,0-39.654-3.139-79.064-5.31-16.136-.872-29.13-1.447-39.585-1.744a23.612,23.612,0,0,1-19.19,9.757Zm-23.388-8.293c.244.3,1.309,1.195,5.943,2.712a94.773,94.773,0,0,0,13.71,3.488,21.424,21.424,0,0,0,20.674-7.752c-32.778-.977-39.314.584-40.326,1.552Z" transform="translate(-135.512 -188.315)"/><path class="q" d="M836.152,680.567l-.3,4.491L836,706.221s-20.141,17.44,1.2,12.208l7.741-.776a4.738,4.738,0,0,0,3.849-2.79l14.835-33.746a3.974,3.974,0,0,0-.454-3.976c-2.435-3.27-7.776-9.391-12.872-8.232C843.413,670.47,836.152,680.567,836.152,680.567Z" transform="translate(-134.257 -194.701)"/><path class="s" d="M984.516,568.242c-1.353,26.927.873,26.029-8.989,29.648l-1.239.61C962.7,603.968,870.2,645.283,707.45,643.2c-172.563-2.224-210.428-15-233.833-44.829-.244-.314-.5-.628-.742-.95,0,0-11.223-20.8-2.243-39.8a11.89,11.89,0,0,1,2.173-4.587c8.282-11.981,47.753-42.937,233.624-37.007,0,0,197.644-10.167,266.358,26.16H973C974.672,542.231,985.72,543.338,984.516,568.242Z" transform="translate(-88.389 -174.981)"/><path class="t" d="M841.508,650.407,824.6,666.1l-2.33-4.063-1.815-3.174-7.086-12.33c-11.528-16-47.762-34.409-47.762-34.409-7.7-3.174-10.638-6.339-11.755-8.214-.873-1.474-1.745-2.965-2.749-4.36a58.4,58.4,0,0,1-6.406-12.888,104.489,104.489,0,0,1-3.656-12.653c-.873-3.741-1.361-6.976-1.684-9.217-.279-2.006-.393-3.191-.393-3.191l2.618-9.487,8.186-29.866,30.544-1.491s.148,17.248.122,33v8.615c0,3.488-.061,6.653-.1,9.3-.079,3.279-.175,5.72-.3,6.836a25.69,25.69,0,0,0-.183,4.1c.218,5.171,2.452,10.2,10.472,12.8,10.106,3.3,28.371,20.806,30.02,28.88,1.082,5.31,9.931,14.955,15.857,20.928,1.414,1.421,2.618,2.616,3.587,3.54C840.827,649.779,841.508,650.407,841.508,650.407Z" transform="translate(-122.997 -175.755)"/><path class="e" d="M841.508,650.407,824.6,666.1l-2.33-4.063-1.815-3.174-7.086-12.33c-11.528-16-47.762-34.409-47.762-34.409-7.7-3.174-10.638-6.339-11.755-8.214-.873-1.474-1.745-2.965-2.749-4.36a58.4,58.4,0,0,1-6.406-12.888,104.489,104.489,0,0,1-3.656-12.653c-.873-3.741-1.361-6.976-1.684-9.217-.279-2.006-.393-3.191-.393-3.191l2.618-9.487,8.186-29.866,30.544-1.491s.148,17.248.122,33v8.615c0,3.488-.061,6.653-.1,9.3-.079,3.279-.175,5.72-.3,6.836a25.69,25.69,0,0,0-.183,4.1c.218,5.171,2.452,10.2,10.472,12.8,10.106,3.3,28.371,20.806,30.02,28.88,1.082,5.31,9.931,14.955,15.857,20.928,1.414,1.421,2.618,2.616,3.587,3.54C840.827,649.779,841.508,650.407,841.508,650.407Z" transform="translate(-122.997 -175.755)"/><path class="u" d="M780.407,558.289V566.9c-8.8,2.119-29.531,2.433-41.016,2.424-.279-2.006-.4-3.191-.4-3.191l2.618-9.487C753.232,558.743,772.248,558.507,780.407,558.289Z" transform="translate(-123.001 -180.349)"/><path class="u" d="M780.319,585.89a25.616,25.616,0,0,0-.183,4.09c-22.995-1.918-31.826,1-35.1,4.072A104.492,104.492,0,0,1,741.38,581.4c9.023-2.755,30.544-2.555,39.27-2.346C780.5,582.333,780.406,584.774,780.319,585.89Z" transform="translate(-123.305 -183.203)"/><path class="v" d="M703.318,702.886h-.428l-20.211-6.732a.222.222,0,0,1,0-.061c.2-.392.384-.794.576-1.195l2.313-1.369,17.358,5.232Z" transform="translate(-115.831 -197.871)"/><path class="e" d="M769.213,491.934l2.993,4.037s-.41,4.935,1.518,7.935,8.814,27.075-23.562,33.955c0,0-18.413,31.392-31.285,43.835l-4.939,9.278s-1.056,10.917,0,16.149,3.29,21.547-4.494,32.464c0,0-6.737,25.881-5.69,36.057h-.873l-20.211-6.732h0a35.241,35.241,0,0,0,3.848-15.556l.192-14.213V587.19a56.324,56.324,0,0,1,2.768-17.446l0,.006a30.907,30.907,0,0,0,1.536-9.173c.087-6.505.873-19.027,5.236-28.688,2.147-4.8,4.267-9.592,6.109-14.553,3.072-8.232,7.5-19.027,10.289-21.372l4.363-8.223,23.257,2.241Z" transform="translate(-115.83 -171.528)"/><path class="q" d="M752.931,368.006s-28.3,17.571-25.91,12.635c1-2.075-.393-6.871-2.365-11.746-1.309-3.279-2.889-6.583-4.154-9.1s-2.313-4.438-2.313-4.438,29.2-17.64,28.144-10.909a19.222,19.222,0,0,0,.6,6.549c.41,1.744.943,3.654,1.545,5.493C750.427,362.478,752.931,368.006,752.931,368.006Z" transform="translate(-120.353 -152.988)"/><path class="w" d="M473.616,603.995c-.244-.314-.5-.628-.742-.95,0,0-11.223-20.8-2.243-39.8a11.89,11.89,0,0,1,2.173-4.587Z" transform="translate(-88.389 -180.606)"/><path class="w" d="M579.786,587.956a15.708,15.708,0,1,1-15.708-15.7,11.138,11.138,0,0,1,1.431.061,15.7,15.7,0,0,1,14.277,15.635Z" transform="translate(-98.73 -182.347)"/><path class="w" d="M573.727,596.028,562.05,600l-8.36-23.2a15.714,15.714,0,0,1,11.057-4.552,11.16,11.16,0,0,1,1.431.061Z" transform="translate(-99.408 -182.345)"/><path class="v" d="M744.519,348.91c-3.936,6.1-8.4,12.3-16.241,12.3a21.893,21.893,0,0,1-7.776-1.413c-1.318-2.616-2.312-4.438-2.312-4.438s29.2-17.64,28.144-10.909C746.081,346.128,743.943,346.372,744.519,348.91Z" transform="translate(-120.353 -152.988)"/><path class="q" d="M748.674,334.222a22.157,22.157,0,0,1-44.315,0,21.78,21.78,0,0,1,.873-6.165,22.159,22.159,0,0,1,43.433,6.165Z" transform="translate(-118.592 -149.043)"/><path class="v" d="M753.875,370s-28.3,17.571-25.91,12.635c1-2.075-.393-6.871-2.365-11.746,5.6-9.3,18.021-11.763,23.824-12.408C751.37,364.471,753.875,370,753.875,370Z" transform="translate(-121.296 -154.981)"/><path class="v" d="M750.564,361.307s-18.326-1.029-25.089,12.731a12.846,12.846,0,0,1-2.618,9.705s-16.764,12.565-11.676,43.233a357.239,357.239,0,0,1,4.957,54.6s4.363-4.037,13.78,0,45.807,0,45.807,0-3.892-36.946-.593-43.678,1.326-41.995-2.862-49.328c-2.819-4.927-10.559-11.51-16.223-16.655a16.973,16.973,0,0,1-5.472-10.612Z" transform="translate(-119.338 -155.34)"/><path class="u" d="M750.565,359.25s-20.944.3-27.7,14.056a6.414,6.414,0,0,1,0,8.38S706.1,394.252,711.19,424.919a357.248,357.248,0,0,1,4.948,54.6s4.363-4.037,13.78,0,45.807,0,45.807,0-3.892-36.946-.593-43.678,1.326-41.995-2.862-49.328c-2.819-4.918-10.559-11.51-16.223-16.655a16.973,16.973,0,0,1-5.472-10.612Z" transform="translate(-119.339 -155.079)"/><path class="q" d="M754.365,510.238,752,515.174l1.929,9.487a46.139,46.139,0,0,0,10.2,21.076c5.157,5.956,11.345,10.028,14.521.549,3.927-11.781.873-17.7-1.658-20.378a57.147,57.147,0,0,1-5.908-7.578c-2.5-3.645-6-7.961-9.748-9.461C754.452,506.253,754.365,510.238,754.365,510.238Z" transform="translate(-124.657 -174.119)"/><path class="v" d="M739.632,440.22l-.052,7.107,1.239,13.394a88.093,88.093,0,0,1,5.742,16.568c2.618,10.464,2.941,30.973,2.941,30.973s13.867-4.456,16.581-3.113c0,0,.8-30.52-2.042-40.111s-1.649-22.567-1.649-22.567Z" transform="translate(-123.076 -165.445)"/><path class="e" d="M740.457,438.17,739,447.439l2.618,11.223a88.089,88.089,0,0,1,5.742,16.568c2.618,10.464,2.941,30.973,2.941,30.973s12.872-3.488,15.569-2.1c0,0,1.8-31.557-1.047-41.132s-1.649-22.576-1.649-22.576Z" transform="translate(-123.002 -165.182)"/><path class="v" d="M748.8,334.232a22.072,22.072,0,0,1-8.334,17.3l-1.117-.375a4.522,4.522,0,0,1-1.484-.724,3.836,3.836,0,0,1-1.056-1.788c-.812-2.407-1.056-4.988-1.964-7.377s-2.714-4.665-5.236-5.084a1.179,1.179,0,0,0-.829.1,1.49,1.49,0,0,0-.5.933,7.362,7.362,0,0,1-4.424,4.8c-1.318.488-3.656.872-4.913,0-1.091-.759-1.056-2.049-1.318-3.244-.707-3.287-2.321-6.61-5.515-8.1a26.413,26.413,0,0,0-3.351-1.1,16.01,16.01,0,0,1-3.4-1.439,22.159,22.159,0,0,1,43.433,6.165Z" transform="translate(-118.719 -149.053)"/><path class="x" d="M711.353,328.447a25.649,25.649,0,0,0-3.36-1.1,13.7,13.7,0,0,1-6.763-4.2,8,8,0,0,1-1.553-7.578c.873-2.381,3.115-4.159,3.648-6.645a15.424,15.424,0,0,1,.55-2.921c.4-.916,1.571-1.622,2.4-1.064a7.11,7.11,0,0,1-.655,3.314,9.753,9.753,0,0,0,3.491-3.218,9,9,0,0,1,1.536-2.119,1.956,1.956,0,0,1,2.391-.3,1.927,1.927,0,0,0,1.1,2.25,5.677,5.677,0,0,0,2.705.349,33.867,33.867,0,0,0,7.339-.82c2.321-.61,4.564-1.744,6.981-1.744s5.1,1.683,4.983,4.09c2.47-.872,5.175.1,7.618,1.064a23,23,0,0,1,6.912,3.715c1.972,1.735,3.36,4.36,2.889,6.976a2.544,2.544,0,0,0-.044,1.325,2.668,2.668,0,0,0,.812.933c1.824,1.683,1.85,4.508,1.745,6.976a5.228,5.228,0,0,1-.41,2.215c-.358.706-1.03,1.238-1.257,2-.524,1.744,1.614,3.261,1.824,5.1a5.168,5.168,0,0,1-1.108,3.157l-5.55,8.929a5.59,5.59,0,0,1-1.161,1.465c-1.431,1.134-3.491.593-5.236,0l-4.59-1.561a4.654,4.654,0,0,1-1.475-.724,3.923,3.923,0,0,1-1.056-1.814c-.82-2.415-1.056-5-1.955-7.386s-2.714-4.665-5.236-5.075a1.135,1.135,0,0,0-.829.087,1.491,1.491,0,0,0-.5.933,7.344,7.344,0,0,1-4.424,4.8c-1.318.488-3.657.872-4.913,0-1.091-.767-1.056-2.058-1.318-3.261C716.162,333.261,714.547,329.947,711.353,328.447Z" transform="translate(-117.949 -147.794)"/><ellipse class="w" cx="18.867" cy="8.075" rx="18.867" ry="8.075" transform="translate(780.646 353.097)"/><ellipse class="w" cx="18.867" cy="8.075" rx="18.867" ry="8.075" transform="translate(780.646 429.623)"/><ellipse class="w" cx="18.867" cy="8.075" rx="18.867" ry="8.075" transform="translate(833.198 390.122)"/><path class="w" d="M1058.326,572.283c-1.353,26.927.873,26.029-8.989,29.648l-1.239.61-1.248-56.261C1048.482,546.271,1059.53,547.379,1058.326,572.283Z" transform="translate(-162.199 -179.021)"/><path class="r" d="M1015.91,466.136l5.166,15.26,6.065-2.25-9.434-16.376Z" transform="translate(-128.589 -47.29)"/><path class="v" d="M735.738,389.131s-14.966-2.215-6.432,33.24c0,0,7.034,17.946,7.182,20.492,0,0,13.326-9.871,23.955-2.389,0,0,2.094-21.7-3.29-31.871C757.153,408.6,753.514,383.847,735.738,389.131Z" transform="translate(-121.433 -158.81)"/><path class="u" d="M736.768,387.071s-14.966-2.215-6.432,33.24c0,0,7.034,17.954,7.182,20.492,0,0,13.326-9.871,23.955-2.389,0,0,2.094-21.7-3.29-31.871C758.183,406.543,754.544,381.787,736.768,387.071Z" transform="translate(-121.564 -158.546)"/><path class="e" d="M737.24,426.308s4.939-3.3,5.69-5.389,4.808,1.648,3.072,3.444S737.24,426.308,737.24,426.308Z" transform="translate(-122.778 -162.895)"/><path class="r" d="M851.579,666.95l-17.454,13.359-1.815-3.174,15.656-13.725C849.406,664.8,850.645,666.052,851.579,666.95Z" transform="translate(-134.883 -194.015)"/><path class="v" d="M768.34,406.41s5.105,20.378,3.011,27.694" transform="translate(-126.738 -161.116)"/><path class="v" d="M803.09,546.308v.95l18.064-16.838L820,530.6Z" transform="translate(-101.491 -55.951)"/><path class="v" d="M726.67,378.92s22.489-6.688,27.341-11.92" transform="translate(-121.432 -156.071)"/><path class="f" d="M192.27,575.117c29.671-.235,54.8-6.374,72.764-6s34.139-.68,51.209,2.991" transform="translate(-53.39 -181.943)"/><path class="f" d="M87.07,527.118c29.671-.227,54.8-6.366,72.764-5.991s34.13-.68,51.2,2.991" transform="translate(-39.996 -175.8)"/><path class="f" d="M303.24,670.282c29.671-.349,54.8-9.662,72.764-9.086s34.13-1.038,51.2,4.534" transform="translate(-67.519 -193.729)"/><path class="f" d="M318.88,618.815c29.671-.654,54.8-18.312,72.764-17.222s34.139-1.971,51.209,8.589" transform="translate(-69.511 -186.096)"/><path class="f" d="M378.93,385.559c29.671-.113,54.8-3.183,72.764-3s34.139-.34,51.209,1.5" transform="translate(-77.157 -158.062)"/><path class="f" d="M176.83,369.96c29.671-.113,54.8-3.183,72.764-2.991s34.139-.349,51.2,1.491" transform="translate(-51.424 -156.066)"/><path class="f" d="M307.9,450.088c29.671-.122,54.8-3.191,72.764-3s34.139-.34,51.209,1.491" transform="translate(-68.113 -166.323)"/><path class="f" d="M105.8,407.688c29.671-.113,54.8-3.183,72.764-3s34.139-.34,51.209,1.5" transform="translate(-42.381 -160.895)"/><path class="l" d="M396,232.754l-6.017-1.064a38.8,38.8,0,0,1,.726-4.421c1.021-12.889-7.923-26.452-20.5-29.872l1.609-5.906c11.458,3.117,20.294,12.7,23.646,23.855a42.339,42.339,0,0,1,27.62-20.01l1.211,6c-13.181,2.656-24.385,13.856-27.519,26.908A30.907,30.907,0,0,1,396,232.754Z" transform="translate(-113.296 -127.52)"/><path class="l" d="M817.019,147.53l-2.522-.446a16.27,16.27,0,0,1,.3-1.853c.428-5.4-3.321-11.087-8.592-12.521l.674-2.475a14.7,14.7,0,0,1,9.911,10,17.746,17.746,0,0,1,11.577-8.387l.508,2.515a15.451,15.451,0,0,0-11.534,11.279,12.958,12.958,0,0,1-.327,1.891Z" transform="translate(-198.809 -69.678)"/><path class="g" d="M809.449,325.614a5.075,5.075,0,0,1-3.9-8.328c9.407-11.24,25.133-30.52,27.227-36.109,3-8.075,110.629-36.344,110.629-36.344s46.889-18.852,53.5-29.648c3.918-6.374,23.213-21.712,38.31-33.136,11.668-8.859,9.713,4.36,23.859,8.127h0c11.048-9.138,39.846-6.976,39.846,19.376l20.857,105.371a8.957,8.957,0,0,1-8.788,10.7Z" transform="translate(-137.434 -127.652)"/></svg>